<svg width="311" height="108" viewBox="0 0 311 108" fill="none" xmlns="http://www.w3.org/2000/svg">
<circle cx="54" cy="54" r="49" stroke="#6632FB" stroke-width="10"/>
<circle cx="54" cy="54" r="29" stroke="#FBC332" stroke-width="10"/>
<circle cx="54" cy="54" r="39" stroke="white" stroke-width="10"/>
<circle cx="54" cy="54" r="15" stroke="#6632FB" stroke-width="10"/>
<path d="M128.047 74V39.875H140C144.141 39.875 147.281 40.6719 149.422 42.2656C151.562 43.8438 152.633 46.1641 152.633 49.2266C152.633 50.8984 152.203 52.375 151.344 53.6562C150.484 54.9219 149.289 55.8516 147.758 56.4453C149.508 56.8828 150.883 57.7656 151.883 59.0938C152.898 60.4219 153.406 62.0469 153.406 63.9688C153.406 67.25 152.359 69.7344 150.266 71.4219C148.172 73.1094 145.188 73.9688 141.312 74H128.047ZM135.078 59.1406V68.3516H141.102C142.758 68.3516 144.047 67.9609 144.969 67.1797C145.906 66.3828 146.375 65.2891 146.375 63.8984C146.375 60.7734 144.758 59.1875 141.523 59.1406H135.078ZM135.078 54.1719H140.281C143.828 54.1094 145.602 52.6953 145.602 49.9297C145.602 48.3828 145.148 47.2734 144.242 46.6016C143.352 45.9141 141.938 45.5703 140 45.5703H135.078V54.1719ZM157.203 61.0859C157.203 58.5703 157.688 56.3281 158.656 54.3594C159.625 52.3906 161.016 50.8672 162.828 49.7891C164.656 48.7109 166.773 48.1719 169.18 48.1719C172.602 48.1719 175.391 49.2188 177.547 51.3125C179.719 53.4062 180.93 56.25 181.18 59.8438L181.227 61.5781C181.227 65.4688 180.141 68.5938 177.969 70.9531C175.797 73.2969 172.883 74.4688 169.227 74.4688C165.57 74.4688 162.648 73.2969 160.461 70.9531C158.289 68.6094 157.203 65.4219 157.203 61.3906V61.0859ZM163.977 61.5781C163.977 63.9844 164.43 65.8281 165.336 67.1094C166.242 68.375 167.539 69.0078 169.227 69.0078C170.867 69.0078 172.148 68.3828 173.07 67.1328C173.992 65.8672 174.453 63.8516 174.453 61.0859C174.453 58.7266 173.992 56.8984 173.07 55.6016C172.148 54.3047 170.852 53.6562 169.18 53.6562C167.523 53.6562 166.242 54.3047 165.336 55.6016C164.43 56.8828 163.977 58.875 163.977 61.5781ZM184.344 61.0859C184.344 58.5703 184.828 56.3281 185.797 54.3594C186.766 52.3906 188.156 50.8672 189.969 49.7891C191.797 48.7109 193.914 48.1719 196.32 48.1719C199.742 48.1719 202.531 49.2188 204.688 51.3125C206.859 53.4062 208.07 56.25 208.32 59.8438L208.367 61.5781C208.367 65.4688 207.281 68.5938 205.109 70.9531C202.938 73.2969 200.023 74.4688 196.367 74.4688C192.711 74.4688 189.789 73.2969 187.602 70.9531C185.43 68.6094 184.344 65.4219 184.344 61.3906V61.0859ZM191.117 61.5781C191.117 63.9844 191.57 65.8281 192.477 67.1094C193.383 68.375 194.68 69.0078 196.367 69.0078C198.008 69.0078 199.289 68.3828 200.211 67.1328C201.133 65.8672 201.594 63.8516 201.594 61.0859C201.594 58.7266 201.133 56.8984 200.211 55.6016C199.289 54.3047 197.992 53.6562 196.32 53.6562C194.664 53.6562 193.383 54.3047 192.477 55.6016C191.57 56.8828 191.117 58.875 191.117 61.5781ZM221.75 63.8281L219.312 66.2656V74H212.539V38H219.312V57.9453L220.625 56.2578L227.117 48.6406H235.25L226.086 59.2109L236.047 74H228.266L221.75 63.8281ZM245.328 74H238.531V48.6406H245.328V74ZM238.133 42.0781C238.133 41.0625 238.469 40.2266 239.141 39.5703C239.828 38.9141 240.758 38.5859 241.93 38.5859C243.086 38.5859 244.008 38.9141 244.695 39.5703C245.383 40.2266 245.727 41.0625 245.727 42.0781C245.727 43.1094 245.375 43.9531 244.672 44.6094C243.984 45.2656 243.07 45.5938 241.93 45.5938C240.789 45.5938 239.867 45.2656 239.164 44.6094C238.477 43.9531 238.133 43.1094 238.133 42.0781ZM257.164 48.6406L257.375 51.5703C259.188 49.3047 261.617 48.1719 264.664 48.1719C267.352 48.1719 269.352 48.9609 270.664 50.5391C271.977 52.1172 272.648 54.4766 272.68 57.6172V74H265.906V57.7812C265.906 56.3438 265.594 55.3047 264.969 54.6641C264.344 54.0078 263.305 53.6797 261.852 53.6797C259.945 53.6797 258.516 54.4922 257.562 56.1172V74H250.789V48.6406H257.164ZM276.852 61.1328C276.852 57.2422 277.773 54.1094 279.617 51.7344C281.477 49.3594 283.977 48.1719 287.117 48.1719C289.898 48.1719 292.062 49.125 293.609 51.0312L293.891 48.6406H300.031V73.1562C300.031 75.375 299.523 77.3047 298.508 78.9453C297.508 80.5859 296.094 81.8359 294.266 82.6953C292.438 83.5547 290.297 83.9844 287.844 83.9844C285.984 83.9844 284.172 83.6094 282.406 82.8594C280.641 82.125 279.305 81.1719 278.398 80L281.398 75.875C283.086 77.7656 285.133 78.7109 287.539 78.7109C289.336 78.7109 290.734 78.2266 291.734 77.2578C292.734 76.3047 293.234 74.9453 293.234 73.1797V71.8203C291.672 73.5859 289.617 74.4688 287.07 74.4688C284.023 74.4688 281.555 73.2812 279.664 70.9062C277.789 68.5156 276.852 65.3516 276.852 61.4141V61.1328ZM283.625 61.625C283.625 63.9219 284.086 65.7266 285.008 67.0391C285.93 68.3359 287.195 68.9844 288.805 68.9844C290.867 68.9844 292.344 68.2109 293.234 66.6641V56C292.328 54.4531 290.867 53.6797 288.852 53.6797C287.227 53.6797 285.945 54.3438 285.008 55.6719C284.086 57 283.625 58.9844 283.625 61.625Z" fill="#1A1A1A"/>
</svg>
