<svg xmlns="http://www.w3.org/2000/svg" viewBox="0 0 116.19 114.42"><defs><style>.cls-1{isolation:isolate;}.cls-2{fill:#efae59;}.cls-3{fill:#fcdfb9;}.cls-4{fill:#ffc166;}.cls-5{fill:#7a344b;}.cls-6{opacity:0.36;}.cls-10,.cls-6{mix-blend-mode:multiply;}.cls-7{fill:#ffabac;}.cls-8{opacity:0.14;mix-blend-mode:overlay;}.cls-9{fill:#fff;}.cls-10{opacity:0.15;}</style></defs><title>Asset 1</title><g class="cls-1"><g id="Layer_2" data-name="Layer 2"><g id="OBJECTS"><path class="cls-2" d="M6.35,47.9A53.44,53.44,0,0,1,1.93,23.06,54.68,54.68,0,0,1,4.14,10.55a52.63,52.63,0,0,1,2.19-6A12.7,12.7,0,0,1,8.75.6c1.59-1.66,5.16.56,6.76,1.34a45.25,45.25,0,0,1,8,5,45.08,45.08,0,0,1,14.13,18.7"/><path class="cls-2" d="M105,47.9a53.44,53.44,0,0,0,4.42-24.83,54.68,54.68,0,0,0-2.21-12.51,52.63,52.63,0,0,0-2.19-6,12.7,12.7,0,0,0-2.41-4c-1.59-1.66-5.16.56-6.76,1.34A45.55,45.55,0,0,0,73.7,25.64"/><path class="cls-3" d="M100.09,41.65A46.62,46.62,0,0,0,102,26.33a64.72,64.72,0,0,0-.71-8A12.64,12.64,0,0,0,99.93,14c-.32-.56-4.25.94-4.74,1.15a26.62,26.62,0,0,0-4.32,2.43,31.47,31.47,0,0,0-8.11,8.11"/><path class="cls-3" d="M11.23,41.65A46.62,46.62,0,0,1,9.35,26.33a64.72,64.72,0,0,1,.71-8A12.64,12.64,0,0,1,11.4,14c.32-.56,4.25.94,4.74,1.15a26.62,26.62,0,0,1,4.32,2.43,31.47,31.47,0,0,1,8.11,8.11"/><path class="cls-4" d="M115.26,65.07a68.5,68.5,0,0,0-10.59-28.46C94.6,21.41,76,17.09,58.1,17.66c-17.87-.57-36.5,3.75-46.57,19A68.5,68.5,0,0,0,.93,65.07C.16,70.75-.39,76.52.35,82.2S3.22,93.52,7.21,97.63c6.09,6.27,12.5,10.53,21.06,12.91a106.49,106.49,0,0,0,29.82,3.87,106.49,106.49,0,0,0,29.82-3.87c8.57-2.38,15-6.65,21.06-12.91,4-4.11,6.12-9.75,6.86-15.43S116,70.75,115.26,65.07Z"/><path class="cls-3" d="M7.21,97.63c6.09,6.27,12.5,10.53,21.06,12.91a106.49,106.49,0,0,0,29.82,3.87,106.49,106.49,0,0,0,29.82-3.87c8.57-2.38,15-6.65,21.06-12.91a23.86,23.86,0,0,0,5.18-8.5c0-.1,0-.2,0-.3a13.37,13.37,0,0,0-5.27-8.6c-3.88-2.57-8.93-2.12-13.57-1.75s-9.83.38-13.26-2.77c-2.81-2.58-3.72-7.35-6.27-10.37C69.35,57.74,58,56,49,59.43a20.72,20.72,0,0,0-8.56,5.92c-2.54,3-3.45,7.79-6.27,10.37-3.43,3.14-8.62,3.14-13.26,2.77s-9.69-.82-13.57,1.75a13.37,13.37,0,0,0-5.27,8.6c0,.1,0,.2,0,.3A23.86,23.86,0,0,0,7.21,97.63Z"/><circle class="cls-5" cx="31.99" cy="68.45" r="4.14"/><g class="cls-6"><path class="cls-7" d="M91.65,82.93c3.94-9.55-13-10.25-15.15-3.63-.79,2.4.71,5.15,2.76,6.28s4.47,1,6.73.69S90.72,85.19,91.65,82.93Z"/></g><circle class="cls-5" cx="84.27" cy="68.45" r="4.14"/><g class="cls-8"><path class="cls-9" d="M21.56,84c7.43-1,16,0,19.13-8.21,2.17-5.63,4.8-10.46,10.22-13.55,4.34-2.47,10.71-3.06,15.62-2.65.55,0,1.08.11,1.6.18A25.93,25.93,0,0,0,49,59.43a20.72,20.72,0,0,0-8.56,5.92c-2.54,3-3.45,7.79-6.27,10.37-3.43,3.14-8.62,3.14-13.26,2.77s-9.69-.82-13.57,1.75a13.37,13.37,0,0,0-5.27,8.6c0,.1,0,.2,0,.3a25.9,25.9,0,0,0,2.71,5.41C7.86,88.53,14.2,85,21.56,84Z"/></g><g class="cls-6"><path class="cls-7" d="M41.18,82.93c3.94-9.55-13-10.25-15.15-3.63-.79,2.4.71,5.15,2.76,6.28s4.47,1,6.73.69S40.25,85.19,41.18,82.93Z"/></g><path class="cls-5" d="M57.46,70.07q0,4.47.27,8.93c0,.64,1,.64,1,0q-.26-4.46-.27-8.93a.5.5,0,0,0-1,0Z"/><path class="cls-5" d="M51.24,74.89A7,7,0,0,0,64.95,74c.11-.63-.85-.9-1-.27a6,6,0,0,1-11.77.85c-.2-.61-1.16-.35-1,.27Z"/><path class="cls-5" d="M61.36,71.8c2.63-1.51,5.68-4.38,4-6.49a5.58,5.58,0,0,0-3.61-1.66,19.71,19.71,0,0,0-6-.06c-1.65.22-3.75.53-4.9,1.9a2.1,2.1,0,0,0-.5,1.66,5.43,5.43,0,0,0,1.15,1.93,9.41,9.41,0,0,0,2,1.87C55,72,57,73.08,58.89,72.81A8,8,0,0,0,61.36,71.8Z"/><g class="cls-10"><path class="cls-4" d="M115.26,65.07a68.5,68.5,0,0,0-10.59-28.46A38.23,38.23,0,0,0,89.33,23.35,43.26,43.26,0,0,1,93.44,30c4.94,10,7,20.78,7.84,31.86.71,10,.19,19.36-6.19,27.55-10.33,13.26-28.89,18.32-44.92,19.49A113.52,113.52,0,0,1,19.43,107a43.41,43.41,0,0,0,8.84,3.52,106.49,106.49,0,0,0,29.82,3.87,106.49,106.49,0,0,0,29.82-3.87c8.57-2.38,15-6.65,21.06-12.91,4-4.11,6.12-9.75,6.86-15.43S116,70.75,115.26,65.07Z"/></g></g></g></g></svg>